<?xml version="1.0" encoding="UTF-8"?>
<!DOCTYPE svg
PUBLIC "-//W3C//DTD SVG 1.1//EN"
       "http://www.w3.org/Graphics/SVG/1.1/DTD/svg11.dtd">
<svg viewBox="51 1 1464 584" width="1413px" height="583px" xmlns="http://www.w3.org/2000/svg" version="1.1">
   <line x1="744" y1="90" x2="754" y2="90" style="stroke:#0bf;stroke-width:1;"/>
   <line x1="713" y1="216" x2="723" y2="216" style="stroke:#0bf;stroke-width:1;"/>
   <line x1="754" y1="90" x2="713" y2="216" style="stroke:#0bf;stroke-width:1;"/>
   <line x1="751.5" y1="90" x2="747.96446609407" y2="93.535533905933" style="stroke:#0bf;stroke-width:2;"/>
   <line x1="751.5" y1="90" x2="747.96446609407" y2="86.464466094067" style="stroke:#0bf;stroke-width:2;"/>
   <line x1="718" y1="216" x2="714.46446609407" y2="219.53553390593" style="stroke:#0bf;stroke-width:2;"/>
   <line x1="718" y1="216" x2="714.46446609407" y2="212.46446609407" style="stroke:#0bf;stroke-width:2;"/>
   <line x1="643" y1="70" x2="633" y2="70" style="stroke:#bbb;stroke-width:1;"/>
   <line x1="578" y1="203" x2="568" y2="203" style="stroke:#bbb;stroke-width:1;"/>
   <line x1="633" y1="70" x2="578" y2="203" style="stroke:#bbb;stroke-width:1;"/>
   <line x1="635.5" y1="70" x2="639.03553390593" y2="73.535533905933" style="stroke:#bbb;stroke-width:2;"/>
   <line x1="635.5" y1="70" x2="639.03553390593" y2="66.464466094067" style="stroke:#bbb;stroke-width:2;"/>
   <line x1="573" y1="203" x2="576.53553390593" y2="206.53553390593" style="stroke:#bbb;stroke-width:2;"/>
   <line x1="573" y1="203" x2="576.53553390593" y2="199.46446609407" style="stroke:#bbb;stroke-width:2;"/>
   <line x1="380" y1="92" x2="370" y2="92" style="stroke:#b0b;stroke-width:1;"/>
   <line x1="203" y1="303" x2="193" y2="303" style="stroke:#b0b;stroke-width:1;"/>
   <line x1="370" y1="92" x2="203" y2="303" style="stroke:#b0b;stroke-width:1;"/>
   <line x1="372.5" y1="92" x2="376.03553390593" y2="95.535533905933" style="stroke:#b0b;stroke-width:2;"/>
   <line x1="372.5" y1="92" x2="376.03553390593" y2="88.464466094067" style="stroke:#b0b;stroke-width:2;"/>
   <line x1="198" y1="303" x2="201.53553390593" y2="306.53553390593" style="stroke:#b0b;stroke-width:2;"/>
   <line x1="198" y1="303" x2="201.53553390593" y2="299.46446609407" style="stroke:#b0b;stroke-width:2;"/>
   <line x1="380" y1="72" x2="370" y2="72" style="stroke:#cb0;stroke-width:1;"/>
   <line x1="203" y1="303" x2="193" y2="303" style="stroke:#cb0;stroke-width:1;"/>
   <line x1="370" y1="72" x2="203" y2="303" style="stroke:#cb0;stroke-width:1;"/>
   <line x1="372.5" y1="72" x2="376.03553390593" y2="75.535533905933" style="stroke:#cb0;stroke-width:2;"/>
   <line x1="372.5" y1="72" x2="376.03553390593" y2="68.464466094067" style="stroke:#cb0;stroke-width:2;"/>
   <line x1="198" y1="303" x2="201.53553390593" y2="306.53553390593" style="stroke:#cb0;stroke-width:2;"/>
   <line x1="198" y1="303" x2="201.53553390593" y2="299.46446609407" style="stroke:#cb0;stroke-width:2;"/>
   <line x1="752" y1="478" x2="762" y2="478" style="stroke:#c00;stroke-width:1;"/>
   <line x1="713" y1="216" x2="723" y2="216" style="stroke:#c00;stroke-width:1;"/>
   <line x1="762" y1="478" x2="713" y2="216" style="stroke:#c00;stroke-width:1;"/>
   <line x1="759.5" y1="478" x2="755.96446609407" y2="481.53553390593" style="stroke:#c00;stroke-width:2;"/>
   <line x1="759.5" y1="478" x2="755.96446609407" y2="474.46446609407" style="stroke:#c00;stroke-width:2;"/>
   <line x1="718" y1="216" x2="714.46446609407" y2="219.53553390593" style="stroke:#c00;stroke-width:2;"/>
   <line x1="718" y1="216" x2="714.46446609407" y2="212.46446609407" style="stroke:#c00;stroke-width:2;"/>
   <line x1="651" y1="458" x2="641" y2="458" style="stroke:#c00;stroke-width:1;"/>
   <line x1="203" y1="303" x2="193" y2="303" style="stroke:#c00;stroke-width:1;"/>
   <line x1="641" y1="458" x2="203" y2="303" style="stroke:#c00;stroke-width:1;"/>
   <line x1="643.5" y1="458" x2="647.03553390593" y2="461.53553390593" style="stroke:#c00;stroke-width:2;"/>
   <line x1="643.5" y1="458" x2="647.03553390593" y2="454.46446609407" style="stroke:#c00;stroke-width:2;"/>
   <line x1="198" y1="303" x2="201.53553390593" y2="306.53553390593" style="stroke:#c00;stroke-width:2;"/>
   <line x1="198" y1="303" x2="201.53553390593" y2="299.46446609407" style="stroke:#c00;stroke-width:2;"/>
   <line x1="184" y1="67" x2="194" y2="67" style="stroke:#bbb;stroke-width:1;"/>
   <line x1="203" y1="303" x2="193" y2="303" style="stroke:#bbb;stroke-width:1;"/>
   <line x1="194" y1="67" x2="203" y2="303" style="stroke:#bbb;stroke-width:1;"/>
   <line x1="191.5" y1="67" x2="187.96446609407" y2="70.535533905933" style="stroke:#bbb;stroke-width:2;"/>
   <line x1="191.5" y1="67" x2="187.96446609407" y2="63.464466094067" style="stroke:#bbb;stroke-width:2;"/>
   <line x1="198" y1="303" x2="201.53553390593" y2="306.53553390593" style="stroke:#bbb;stroke-width:2;"/>
   <line x1="198" y1="303" x2="201.53553390593" y2="299.46446609407" style="stroke:#bbb;stroke-width:2;"/>
   <line x1="313" y1="458" x2="303" y2="458" style="stroke:#cb0;stroke-width:1;"/>
   <line x1="194" y1="47" x2="184" y2="47" style="stroke:#cb0;stroke-width:1;"/>
   <line x1="303" y1="458" x2="194" y2="47" style="stroke:#cb0;stroke-width:1;"/>
   <line x1="305.5" y1="458" x2="309.03553390593" y2="461.53553390593" style="stroke:#cb0;stroke-width:2;"/>
   <line x1="305.5" y1="458" x2="309.03553390593" y2="454.46446609407" style="stroke:#cb0;stroke-width:2;"/>
   <line x1="189" y1="47" x2="192.53553390593" y2="50.535533905933" style="stroke:#cb0;stroke-width:2;"/>
   <line x1="189" y1="47" x2="192.53553390593" y2="43.464466094067" style="stroke:#cb0;stroke-width:2;"/>
   <line x1="313" y1="438" x2="303" y2="438" style="stroke:#c00;stroke-width:1;"/>
   <line x1="203" y1="303" x2="193" y2="303" style="stroke:#c00;stroke-width:1;"/>
   <line x1="303" y1="438" x2="203" y2="303" style="stroke:#c00;stroke-width:1;"/>
   <line x1="305.5" y1="438" x2="309.03553390593" y2="441.53553390593" style="stroke:#c00;stroke-width:2;"/>
   <line x1="305.5" y1="438" x2="309.03553390593" y2="434.46446609407" style="stroke:#c00;stroke-width:2;"/>
   <line x1="198" y1="303" x2="201.53553390593" y2="306.53553390593" style="stroke:#c00;stroke-width:2;"/>
   <line x1="198" y1="303" x2="201.53553390593" y2="299.46446609407" style="stroke:#c00;stroke-width:2;"/>
   <line x1="432" y1="223" x2="422" y2="223" style="stroke:#c00;stroke-width:1;"/>
   <line x1="203" y1="303" x2="193" y2="303" style="stroke:#c00;stroke-width:1;"/>
   <line x1="422" y1="223" x2="203" y2="303" style="stroke:#c00;stroke-width:1;"/>
   <line x1="424.5" y1="223" x2="428.03553390593" y2="226.53553390593" style="stroke:#c00;stroke-width:2;"/>
   <line x1="424.5" y1="223" x2="428.03553390593" y2="219.46446609407" style="stroke:#c00;stroke-width:2;"/>
   <line x1="198" y1="303" x2="201.53553390593" y2="306.53553390593" style="stroke:#c00;stroke-width:2;"/>
   <line x1="198" y1="303" x2="201.53553390593" y2="299.46446609407" style="stroke:#c00;stroke-width:2;"/>
   <rect width="101" height="20" x="643" y="20" style="fill:#007;stroke:black;"/>
   <text width="101" height="20" x="648" y="34" style="fill:#fff;" font-family="Arial" font-size="16px"> cart_transaksi</text>
   <rect width="101" height="20" x="643" y="40" style="fill:#aea;stroke:black;"/>
   <text width="101" height="20" x="648" y="54" style="fill:black;" font-family="Arial" font-size="16px">id</text>
   <rect width="101" height="20" x="643" y="60" style="fill:none;stroke:black;"/>
   <text width="101" height="20" x="648" y="74" style="fill:black;" font-family="Arial" font-size="16px">transaksi_id</text>
   <rect width="101" height="20" x="643" y="80" style="fill:none;stroke:black;"/>
   <text width="101" height="20" x="648" y="94" style="fill:black;" font-family="Arial" font-size="16px">sayur_id</text>
   <rect width="101" height="20" x="643" y="100" style="fill:none;stroke:black;"/>
   <text width="101" height="20" x="648" y="114" style="fill:black;" font-family="Arial" font-size="16px">jumlah_sayur</text>
   <rect width="101" height="20" x="643" y="120" style="fill:none;stroke:black;"/>
   <text width="101" height="20" x="648" y="134" style="fill:black;" font-family="Arial" font-size="16px">total_harga</text>
   <rect width="101" height="20" x="643" y="140" style="fill:none;stroke:black;"/>
   <text width="101" height="20" x="648" y="154" style="fill:black;" font-family="Arial" font-size="16px">created_at</text>
   <rect width="101" height="20" x="643" y="160" style="fill:none;stroke:black;"/>
   <text width="101" height="20" x="648" y="174" style="fill:black;" font-family="Arial" font-size="16px">updated_at</text>
   <rect width="94" height="20" x="380" y="22" style="fill:#007;stroke:black;"/>
   <text width="94" height="20" x="385" y="36" style="fill:#fff;" font-family="Arial" font-size="16px"> chatting</text>
   <rect width="94" height="20" x="380" y="42" style="fill:#aea;stroke:black;"/>
   <text width="94" height="20" x="385" y="56" style="fill:black;" font-family="Arial" font-size="16px">id</text>
   <rect width="94" height="20" x="380" y="62" style="fill:none;stroke:black;"/>
   <text width="94" height="20" x="385" y="76" style="fill:black;" font-family="Arial" font-size="16px">pengirim_id</text>
   <rect width="94" height="20" x="380" y="82" style="fill:none;stroke:black;"/>
   <text width="94" height="20" x="385" y="96" style="fill:black;" font-family="Arial" font-size="16px">penerima_id</text>
   <rect width="94" height="20" x="380" y="102" style="fill:none;stroke:black;"/>
   <text width="94" height="20" x="385" y="116" style="fill:black;" font-family="Arial" font-size="16px">pesan</text>
   <rect width="94" height="20" x="380" y="122" style="fill:none;stroke:black;"/>
   <text width="94" height="20" x="385" y="136" style="fill:black;" font-family="Arial" font-size="16px">created_at</text>
   <rect width="94" height="20" x="380" y="142" style="fill:none;stroke:black;"/>
   <text width="94" height="20" x="385" y="156" style="fill:black;" font-family="Arial" font-size="16px">updated_at</text>
   <rect width="101" height="20" x="651" y="408" style="fill:#007;stroke:black;"/>
   <text width="101" height="20" x="656" y="422" style="fill:#fff;" font-family="Arial" font-size="16px"> keranjang</text>
   <rect width="101" height="20" x="651" y="428" style="fill:#aea;stroke:black;"/>
   <text width="101" height="20" x="656" y="442" style="fill:black;" font-family="Arial" font-size="16px">id</text>
   <rect width="101" height="20" x="651" y="448" style="fill:none;stroke:black;"/>
   <text width="101" height="20" x="656" y="462" style="fill:black;" font-family="Arial" font-size="16px">user_id</text>
   <rect width="101" height="20" x="651" y="468" style="fill:none;stroke:black;"/>
   <text width="101" height="20" x="656" y="482" style="fill:black;" font-family="Arial" font-size="16px">sayur_id</text>
   <rect width="101" height="20" x="651" y="488" style="fill:none;stroke:black;"/>
   <text width="101" height="20" x="656" y="502" style="fill:black;" font-family="Arial" font-size="16px">jumlah_sayur</text>
   <rect width="101" height="20" x="651" y="508" style="fill:none;stroke:black;"/>
   <text width="101" height="20" x="656" y="522" style="fill:black;" font-family="Arial" font-size="16px">total_harga</text>
   <rect width="101" height="20" x="651" y="528" style="fill:none;stroke:black;"/>
   <text width="101" height="20" x="656" y="542" style="fill:black;" font-family="Arial" font-size="16px">created_at</text>
   <rect width="101" height="20" x="651" y="548" style="fill:none;stroke:black;"/>
   <text width="101" height="20" x="656" y="562" style="fill:black;" font-family="Arial" font-size="16px">updated_at</text>
   <rect width="83" height="20" x="1232" y="331" style="fill:#007;stroke:black;"/>
   <text width="83" height="20" x="1237" y="345" style="fill:#fff;" font-family="Arial" font-size="16px"> migrations</text>
   <rect width="83" height="20" x="1232" y="351" style="fill:#aea;stroke:black;"/>
   <text width="83" height="20" x="1237" y="365" style="fill:black;" font-family="Arial" font-size="16px">id</text>
   <rect width="83" height="20" x="1232" y="371" style="fill:none;stroke:black;"/>
   <text width="83" height="20" x="1237" y="385" style="fill:black;" font-family="Arial" font-size="16px">migration</text>
   <rect width="83" height="20" x="1232" y="391" style="fill:none;stroke:black;"/>
   <text width="83" height="20" x="1237" y="405" style="fill:black;" font-family="Arial" font-size="16px">batch</text>
   <rect width="156" height="20" x="1252" y="194" style="fill:#007;stroke:black;"/>
   <text width="156" height="20" x="1257" y="208" style="fill:#fff;" font-family="Arial" font-size="16px"> oauth_access_tokens</text>
   <rect width="156" height="20" x="1252" y="214" style="fill:none;stroke:black;"/>
   <text width="156" height="20" x="1257" y="228" style="fill:black;" font-family="Arial" font-size="16px">id</text>
   <rect width="156" height="20" x="1252" y="234" style="fill:none;stroke:black;"/>
   <text width="156" height="20" x="1257" y="248" style="fill:black;" font-family="Arial" font-size="16px">user_id</text>
   <rect width="156" height="20" x="1252" y="254" style="fill:none;stroke:black;"/>
   <text width="156" height="20" x="1257" y="268" style="fill:black;" font-family="Arial" font-size="16px">client_id</text>
   <rect width="156" height="20" x="1252" y="274" style="fill:none;stroke:black;"/>
   <text width="156" height="20" x="1257" y="288" style="fill:black;" font-family="Arial" font-size="16px">name</text>
   <rect width="156" height="20" x="1252" y="294" style="fill:none;stroke:black;"/>
   <text width="156" height="20" x="1257" y="308" style="fill:black;" font-family="Arial" font-size="16px">scopes</text>
   <rect width="156" height="20" x="1252" y="314" style="fill:none;stroke:black;"/>
   <text width="156" height="20" x="1257" y="328" style="fill:black;" font-family="Arial" font-size="16px">revoked</text>
   <rect width="156" height="20" x="1252" y="334" style="fill:none;stroke:black;"/>
   <text width="156" height="20" x="1257" y="348" style="fill:black;" font-family="Arial" font-size="16px">created_at</text>
   <rect width="156" height="20" x="1252" y="354" style="fill:none;stroke:black;"/>
   <text width="156" height="20" x="1257" y="368" style="fill:black;" font-family="Arial" font-size="16px">updated_at</text>
   <rect width="156" height="20" x="1252" y="374" style="fill:none;stroke:black;"/>
   <text width="156" height="20" x="1257" y="388" style="fill:black;" font-family="Arial" font-size="16px">expires_at</text>
   <rect width="129" height="20" x="1224" y="82" style="fill:#007;stroke:black;"/>
   <text width="129" height="20" x="1229" y="96" style="fill:#fff;" font-family="Arial" font-size="16px"> oauth_auth_codes</text>
   <rect width="129" height="20" x="1224" y="102" style="fill:none;stroke:black;"/>
   <text width="129" height="20" x="1229" y="116" style="fill:black;" font-family="Arial" font-size="16px">id</text>
   <rect width="129" height="20" x="1224" y="122" style="fill:none;stroke:black;"/>
   <text width="129" height="20" x="1229" y="136" style="fill:black;" font-family="Arial" font-size="16px">user_id</text>
   <rect width="129" height="20" x="1224" y="142" style="fill:none;stroke:black;"/>
   <text width="129" height="20" x="1229" y="156" style="fill:black;" font-family="Arial" font-size="16px">client_id</text>
   <rect width="129" height="20" x="1224" y="162" style="fill:none;stroke:black;"/>
   <text width="129" height="20" x="1229" y="176" style="fill:black;" font-family="Arial" font-size="16px">scopes</text>
   <rect width="129" height="20" x="1224" y="182" style="fill:none;stroke:black;"/>
   <text width="129" height="20" x="1229" y="196" style="fill:black;" font-family="Arial" font-size="16px">revoked</text>
   <rect width="129" height="20" x="1224" y="202" style="fill:none;stroke:black;"/>
   <text width="129" height="20" x="1229" y="216" style="fill:black;" font-family="Arial" font-size="16px">expires_at</text>
   <rect width="169" height="20" x="1252" y="135" style="fill:#007;stroke:black;"/>
   <text width="169" height="20" x="1257" y="149" style="fill:#fff;" font-family="Arial" font-size="16px"> oauth_clients</text>
   <rect width="169" height="20" x="1252" y="155" style="fill:#aea;stroke:black;"/>
   <text width="169" height="20" x="1257" y="169" style="fill:black;" font-family="Arial" font-size="16px">id</text>
   <rect width="169" height="20" x="1252" y="175" style="fill:none;stroke:black;"/>
   <text width="169" height="20" x="1257" y="189" style="fill:black;" font-family="Arial" font-size="16px">user_id</text>
   <rect width="169" height="20" x="1252" y="195" style="fill:none;stroke:black;"/>
   <text width="169" height="20" x="1257" y="209" style="fill:black;" font-family="Arial" font-size="16px">name</text>
   <rect width="169" height="20" x="1252" y="215" style="fill:none;stroke:black;"/>
   <text width="169" height="20" x="1257" y="229" style="fill:black;" font-family="Arial" font-size="16px">secret</text>
   <rect width="169" height="20" x="1252" y="235" style="fill:none;stroke:black;"/>
   <text width="169" height="20" x="1257" y="249" style="fill:black;" font-family="Arial" font-size="16px">redirect</text>
   <rect width="169" height="20" x="1252" y="255" style="fill:none;stroke:black;"/>
   <text width="169" height="20" x="1257" y="269" style="fill:black;" font-family="Arial" font-size="16px">personal_access_client</text>
   <rect width="169" height="20" x="1252" y="275" style="fill:none;stroke:black;"/>
   <text width="169" height="20" x="1257" y="289" style="fill:black;" font-family="Arial" font-size="16px">password_client</text>
   <rect width="169" height="20" x="1252" y="295" style="fill:none;stroke:black;"/>
   <text width="169" height="20" x="1257" y="309" style="fill:black;" font-family="Arial" font-size="16px">revoked</text>
   <rect width="169" height="20" x="1252" y="315" style="fill:none;stroke:black;"/>
   <text width="169" height="20" x="1257" y="329" style="fill:black;" font-family="Arial" font-size="16px">created_at</text>
   <rect width="169" height="20" x="1252" y="335" style="fill:none;stroke:black;"/>
   <text width="169" height="20" x="1257" y="349" style="fill:black;" font-family="Arial" font-size="16px">updated_at</text>
   <rect width="219" height="20" x="1230" y="33" style="fill:#007;stroke:black;"/>
   <text width="219" height="20" x="1235" y="47" style="fill:#fff;" font-family="Arial" font-size="16px"> oauth_personal_access_clients</text>
   <rect width="219" height="20" x="1230" y="53" style="fill:#aea;stroke:black;"/>
   <text width="219" height="20" x="1235" y="67" style="fill:black;" font-family="Arial" font-size="16px">id</text>
   <rect width="219" height="20" x="1230" y="73" style="fill:none;stroke:black;"/>
   <text width="219" height="20" x="1235" y="87" style="fill:black;" font-family="Arial" font-size="16px">client_id</text>
   <rect width="219" height="20" x="1230" y="93" style="fill:none;stroke:black;"/>
   <text width="219" height="20" x="1235" y="107" style="fill:black;" font-family="Arial" font-size="16px">created_at</text>
   <rect width="219" height="20" x="1230" y="113" style="fill:none;stroke:black;"/>
   <text width="219" height="20" x="1235" y="127" style="fill:black;" font-family="Arial" font-size="16px">updated_at</text>
   <rect width="156" height="20" x="1233" y="267" style="fill:#007;stroke:black;"/>
   <text width="156" height="20" x="1238" y="281" style="fill:#fff;" font-family="Arial" font-size="16px"> oauth_refresh_tokens</text>
   <rect width="156" height="20" x="1233" y="287" style="fill:none;stroke:black;"/>
   <text width="156" height="20" x="1238" y="301" style="fill:black;" font-family="Arial" font-size="16px">id</text>
   <rect width="156" height="20" x="1233" y="307" style="fill:none;stroke:black;"/>
   <text width="156" height="20" x="1238" y="321" style="fill:black;" font-family="Arial" font-size="16px">access_token_id</text>
   <rect width="156" height="20" x="1233" y="327" style="fill:none;stroke:black;"/>
   <text width="156" height="20" x="1238" y="341" style="fill:black;" font-family="Arial" font-size="16px">revoked</text>
   <rect width="156" height="20" x="1233" y="347" style="fill:none;stroke:black;"/>
   <text width="156" height="20" x="1238" y="361" style="fill:black;" font-family="Arial" font-size="16px">expires_at</text>
   <rect width="123" height="20" x="1253" y="16" style="fill:#007;stroke:black;"/>
   <text width="123" height="20" x="1258" y="30" style="fill:#fff;" font-family="Arial" font-size="16px"> password_resets</text>
   <rect width="123" height="20" x="1253" y="36" style="fill:none;stroke:black;"/>
   <text width="123" height="20" x="1258" y="50" style="fill:black;" font-family="Arial" font-size="16px">email</text>
   <rect width="123" height="20" x="1253" y="56" style="fill:none;stroke:black;"/>
   <text width="123" height="20" x="1258" y="70" style="fill:black;" font-family="Arial" font-size="16px">token</text>
   <rect width="123" height="20" x="1253" y="76" style="fill:none;stroke:black;"/>
   <text width="123" height="20" x="1258" y="90" style="fill:black;" font-family="Arial" font-size="16px">created_at</text>
   <rect width="106" height="20" x="78" y="17" style="fill:#007;stroke:black;"/>
   <text width="106" height="20" x="83" y="31" style="fill:#fff;" font-family="Arial" font-size="16px"> pembayaran</text>
   <rect width="106" height="20" x="78" y="37" style="fill:#aea;stroke:black;"/>
   <text width="106" height="20" x="83" y="51" style="fill:black;" font-family="Arial" font-size="16px">id</text>
   <rect width="106" height="20" x="78" y="57" style="fill:none;stroke:black;"/>
   <text width="106" height="20" x="83" y="71" style="fill:black;" font-family="Arial" font-size="16px">user_id</text>
   <rect width="106" height="20" x="78" y="77" style="fill:none;stroke:black;"/>
   <text width="106" height="20" x="83" y="91" style="fill:black;" font-family="Arial" font-size="16px">jenis</text>
   <rect width="106" height="20" x="78" y="97" style="fill:none;stroke:black;"/>
   <text width="106" height="20" x="83" y="111" style="fill:black;" font-family="Arial" font-size="16px">kode</text>
   <rect width="106" height="20" x="78" y="117" style="fill:none;stroke:black;"/>
   <text width="106" height="20" x="83" y="131" style="fill:black;" font-family="Arial" font-size="16px">total_harga</text>
   <rect width="106" height="20" x="78" y="137" style="fill:none;stroke:black;"/>
   <text width="106" height="20" x="83" y="151" style="fill:black;" font-family="Arial" font-size="16px">foto_transaksi</text>
   <rect width="106" height="20" x="78" y="157" style="fill:none;stroke:black;"/>
   <text width="106" height="20" x="83" y="171" style="fill:black;" font-family="Arial" font-size="16px">status</text>
   <rect width="106" height="20" x="78" y="177" style="fill:none;stroke:black;"/>
   <text width="106" height="20" x="83" y="191" style="fill:black;" font-family="Arial" font-size="16px">isDeliver</text>
   <rect width="106" height="20" x="78" y="197" style="fill:none;stroke:black;"/>
   <text width="106" height="20" x="83" y="211" style="fill:black;" font-family="Arial" font-size="16px">kode_belanja</text>
   <rect width="106" height="20" x="78" y="217" style="fill:none;stroke:black;"/>
   <text width="106" height="20" x="83" y="231" style="fill:black;" font-family="Arial" font-size="16px">created_at</text>
   <rect width="106" height="20" x="78" y="237" style="fill:none;stroke:black;"/>
   <text width="106" height="20" x="83" y="251" style="fill:black;" font-family="Arial" font-size="16px">updated_at</text>
   <rect width="117" height="20" x="313" y="388" style="fill:#007;stroke:black;"/>
   <text width="117" height="20" x="318" y="402" style="fill:#fff;" font-family="Arial" font-size="16px"> pengiriman</text>
   <rect width="117" height="20" x="313" y="408" style="fill:#aea;stroke:black;"/>
   <text width="117" height="20" x="318" y="422" style="fill:black;" font-family="Arial" font-size="16px">id</text>
   <rect width="117" height="20" x="313" y="428" style="fill:none;stroke:black;"/>
   <text width="117" height="20" x="318" y="442" style="fill:black;" font-family="Arial" font-size="16px">user_id</text>
   <rect width="117" height="20" x="313" y="448" style="fill:none;stroke:black;"/>
   <text width="117" height="20" x="318" y="462" style="fill:black;" font-family="Arial" font-size="16px">pembayaran_id</text>
   <rect width="117" height="20" x="313" y="468" style="fill:none;stroke:black;"/>
   <text width="117" height="20" x="318" y="482" style="fill:black;" font-family="Arial" font-size="16px">alamat</text>
   <rect width="117" height="20" x="313" y="488" style="fill:none;stroke:black;"/>
   <text width="117" height="20" x="318" y="502" style="fill:black;" font-family="Arial" font-size="16px">status</text>
   <rect width="117" height="20" x="313" y="508" style="fill:none;stroke:black;"/>
   <text width="117" height="20" x="318" y="522" style="fill:black;" font-family="Arial" font-size="16px">created_at</text>
   <rect width="117" height="20" x="313" y="528" style="fill:none;stroke:black;"/>
   <text width="117" height="20" x="318" y="542" style="fill:black;" font-family="Arial" font-size="16px">updated_at</text>
   <rect width="86" height="20" x="906" y="389" style="fill:#007;stroke:black;"/>
   <text width="86" height="20" x="911" y="403" style="fill:#fff;" font-family="Arial" font-size="16px"> sayur</text>
   <rect width="86" height="20" x="906" y="409" style="fill:#aea;stroke:black;"/>
   <text width="86" height="20" x="911" y="423" style="fill:black;" font-family="Arial" font-size="16px">id</text>
   <rect width="86" height="20" x="906" y="429" style="fill:none;stroke:black;"/>
   <text width="86" height="20" x="911" y="443" style="fill:black;" font-family="Arial" font-size="16px">nama</text>
   <rect width="86" height="20" x="906" y="449" style="fill:none;stroke:black;"/>
   <text width="86" height="20" x="911" y="463" style="fill:black;" font-family="Arial" font-size="16px">jumlah</text>
   <rect width="86" height="20" x="906" y="469" style="fill:none;stroke:black;"/>
   <text width="86" height="20" x="911" y="483" style="fill:black;" font-family="Arial" font-size="16px">berat</text>
   <rect width="86" height="20" x="906" y="489" style="fill:none;stroke:black;"/>
   <text width="86" height="20" x="911" y="503" style="fill:black;" font-family="Arial" font-size="16px">harga</text>
   <rect width="86" height="20" x="906" y="509" style="fill:none;stroke:black;"/>
   <text width="86" height="20" x="911" y="523" style="fill:black;" font-family="Arial" font-size="16px">foto</text>
   <rect width="86" height="20" x="906" y="529" style="fill:none;stroke:black;"/>
   <text width="86" height="20" x="911" y="543" style="fill:black;" font-family="Arial" font-size="16px">created_at</text>
   <rect width="86" height="20" x="906" y="549" style="fill:none;stroke:black;"/>
   <text width="86" height="20" x="911" y="563" style="fill:black;" font-family="Arial" font-size="16px">updated_at</text>
   <rect width="93" height="20" x="723" y="186" style="fill:#007;stroke:black;"/>
   <text width="93" height="20" x="728" y="200" style="fill:#fff;" font-family="Arial" font-size="16px"> sayurmobile</text>
   <rect width="93" height="20" x="723" y="206" style="fill:#aea;stroke:black;"/>
   <text width="93" height="20" x="728" y="220" style="fill:black;" font-family="Arial" font-size="16px">id</text>
   <rect width="93" height="20" x="723" y="226" style="fill:none;stroke:black;"/>
   <text width="93" height="20" x="728" y="240" style="fill:black;" font-family="Arial" font-size="16px">nama</text>
   <rect width="93" height="20" x="723" y="246" style="fill:none;stroke:black;"/>
   <text width="93" height="20" x="728" y="260" style="fill:black;" font-family="Arial" font-size="16px">jumlah</text>
   <rect width="93" height="20" x="723" y="266" style="fill:none;stroke:black;"/>
   <text width="93" height="20" x="728" y="280" style="fill:black;" font-family="Arial" font-size="16px">berat</text>
   <rect width="93" height="20" x="723" y="286" style="fill:none;stroke:black;"/>
   <text width="93" height="20" x="728" y="300" style="fill:black;" font-family="Arial" font-size="16px">harga</text>
   <rect width="93" height="20" x="723" y="306" style="fill:none;stroke:black;"/>
   <text width="93" height="20" x="728" y="320" style="fill:black;" font-family="Arial" font-size="16px">foto</text>
   <rect width="93" height="20" x="723" y="326" style="fill:none;stroke:black;"/>
   <text width="93" height="20" x="728" y="340" style="fill:black;" font-family="Arial" font-size="16px">created_at</text>
   <rect width="93" height="20" x="723" y="346" style="fill:none;stroke:black;"/>
   <text width="93" height="20" x="728" y="360" style="fill:black;" font-family="Arial" font-size="16px">updated_at</text>
   <rect width="136" height="20" x="432" y="173" style="fill:#007;stroke:black;"/>
   <text width="136" height="20" x="437" y="187" style="fill:#fff;" font-family="Arial" font-size="16px"> transaksi</text>
   <rect width="136" height="20" x="432" y="193" style="fill:#aea;stroke:black;"/>
   <text width="136" height="20" x="437" y="207" style="fill:black;" font-family="Arial" font-size="16px">id</text>
   <rect width="136" height="20" x="432" y="213" style="fill:none;stroke:black;"/>
   <text width="136" height="20" x="437" y="227" style="fill:black;" font-family="Arial" font-size="16px">user_id</text>
   <rect width="136" height="20" x="432" y="233" style="fill:none;stroke:black;"/>
   <text width="136" height="20" x="437" y="247" style="fill:black;" font-family="Arial" font-size="16px">alamat</text>
   <rect width="136" height="20" x="432" y="253" style="fill:none;stroke:black;"/>
   <text width="136" height="20" x="437" y="267" style="fill:black;" font-family="Arial" font-size="16px">status_transaksi</text>
   <rect width="136" height="20" x="432" y="273" style="fill:none;stroke:black;"/>
   <text width="136" height="20" x="437" y="287" style="fill:black;" font-family="Arial" font-size="16px">metode_transaksi</text>
   <rect width="136" height="20" x="432" y="293" style="fill:none;stroke:black;"/>
   <text width="136" height="20" x="437" y="307" style="fill:black;" font-family="Arial" font-size="16px">waktu_pengiriman</text>
   <rect width="136" height="20" x="432" y="313" style="fill:none;stroke:black;"/>
   <text width="136" height="20" x="437" y="327" style="fill:black;" font-family="Arial" font-size="16px">created_at</text>
   <rect width="136" height="20" x="432" y="333" style="fill:none;stroke:black;"/>
   <text width="136" height="20" x="437" y="347" style="fill:black;" font-family="Arial" font-size="16px">updated_at</text>
   <rect width="127" height="20" x="66" y="273" style="fill:#007;stroke:black;"/>
   <text width="127" height="20" x="71" y="287" style="fill:#fff;" font-family="Arial" font-size="16px"> users</text>
   <rect width="127" height="20" x="66" y="293" style="fill:#aea;stroke:black;"/>
   <text width="127" height="20" x="71" y="307" style="fill:black;" font-family="Arial" font-size="16px">id</text>
   <rect width="127" height="20" x="66" y="313" style="fill:none;stroke:black;"/>
   <text width="127" height="20" x="71" y="327" style="fill:black;" font-family="Arial" font-size="16px">name</text>
   <rect width="127" height="20" x="66" y="333" style="fill:none;stroke:black;"/>
   <text width="127" height="20" x="71" y="347" style="fill:black;" font-family="Arial" font-size="16px">email</text>
   <rect width="127" height="20" x="66" y="353" style="fill:none;stroke:black;"/>
   <text width="127" height="20" x="71" y="367" style="fill:black;" font-family="Arial" font-size="16px">nomor_telepon</text>
   <rect width="127" height="20" x="66" y="373" style="fill:none;stroke:black;"/>
   <text width="127" height="20" x="71" y="387" style="fill:black;" font-family="Arial" font-size="16px">password</text>
   <rect width="127" height="20" x="66" y="393" style="fill:none;stroke:black;"/>
   <text width="127" height="20" x="71" y="407" style="fill:black;" font-family="Arial" font-size="16px">foto</text>
   <rect width="127" height="20" x="66" y="413" style="fill:none;stroke:black;"/>
   <text width="127" height="20" x="71" y="427" style="fill:black;" font-family="Arial" font-size="16px">tipe</text>
   <rect width="127" height="20" x="66" y="433" style="fill:none;stroke:black;"/>
   <text width="127" height="20" x="71" y="447" style="fill:black;" font-family="Arial" font-size="16px">remember_token</text>
   <rect width="127" height="20" x="66" y="453" style="fill:none;stroke:black;"/>
   <text width="127" height="20" x="71" y="467" style="fill:black;" font-family="Arial" font-size="16px">created_at</text>
   <rect width="127" height="20" x="66" y="473" style="fill:none;stroke:black;"/>
   <text width="127" height="20" x="71" y="487" style="fill:black;" font-family="Arial" font-size="16px">updated_at</text>
</svg>
